<svg width="24" height="24" viewBox="0 0 24 24" fill="none" xmlns="http://www.w3.org/2000/svg">
<g id="file">
<g id="Group">
<path id="Path" d="M21 9H17.1818C15.9768 9 15 8.02317 15 6.81818V3" stroke="black" stroke-width="1.15" stroke-linecap="round" stroke-linejoin="round"/>
<path id="Path_2" d="M9.50009 5.495L9.49509 5.5L9.50009 5.505L9.50509 5.5L9.50009 5.495" stroke="black" stroke-width="1.15" stroke-linecap="round" stroke-linejoin="round"/>
<path id="Path_3" d="M9.50009 8.495L9.49509 8.5L9.50009 8.505L9.50509 8.5L9.50009 8.495" stroke="black" stroke-width="1.15" stroke-linecap="round" stroke-linejoin="round"/>
<path id="Path_4" d="M9.50009 11.495L9.49509 11.5L9.50009 11.505L9.50509 11.5L9.50009 11.495" stroke="black" stroke-width="1.15" stroke-linecap="round" stroke-linejoin="round"/>
<path id="Path_5" d="M9.50009 14.495L9.49509 14.5L9.50009 14.505L9.50509 14.5L9.50009 14.495" stroke="black" stroke-width="1.15" stroke-linecap="round" stroke-linejoin="round"/>
<path id="Path_6" d="M9.50009 17.495L9.49509 17.5L9.50009 17.505L9.50509 17.5L9.50009 17.495" stroke="black" stroke-width="1.15" stroke-linecap="round" stroke-linejoin="round"/>
<path id="Path_7" fill-rule="evenodd" clip-rule="evenodd" d="M19.1213 6.12132L16.8787 3.87868C16.3161 3.31607 15.553 3 14.7574 3H7C5.34315 3 4 4.34315 4 6V18C4 19.6569 5.34315 21 7 21H17C18.6569 21 20 19.6569 20 18V8.24264C20 7.44699 19.6839 6.68393 19.1213 6.12132Z" stroke="black" stroke-width="1.15" stroke-linecap="round" stroke-linejoin="round"/>
</g>
</g>
</svg>
