<svg width="137" height="137" viewBox="0 0 137 137" fill="none" xmlns="http://www.w3.org/2000/svg">
<mask id="mask0_590_530" style="mask-type:luminance" maskUnits="userSpaceOnUse" x="0" y="0" width="137" height="137">
<rect width="137" height="137" fill="white"/>
</mask>
<g mask="url(#mask0_590_530)">
<path fill-rule="evenodd" clip-rule="evenodd" d="M53.6242 124.854L42.6039 127.43L37.1438 117.517L25.867 116.561L23.7374 105.446L13.308 101.052L14.7174 89.8225L6.15629 82.4206L10.9667 72.1766L5.11185 62.4915L12.8524 54.2354L10.277 43.2151L20.1899 37.755L21.146 26.4782L32.2611 24.3486L36.6551 13.9192L47.8842 15.3286L55.286 6.76749L65.53 11.5779L75.2151 5.72305L83.4713 13.4636L94.4915 10.8882L99.9517 20.8011L111.228 21.7572L113.358 32.8723L123.787 37.2663L122.378 48.4954L130.939 55.8972L126.129 66.1412L131.984 75.8263L124.243 84.0825L126.819 95.1028L116.906 100.563L115.949 111.84L104.834 113.969L100.44 124.399L89.2113 122.989L81.8094 131.55L71.5654 126.74L61.8803 132.595L53.6242 124.854Z" fill="#96E329"/>
<circle cx="69.0122" cy="69.0352" r="58" transform="rotate(15 69.0122 69.0352)" fill="#96E329"/>
<ellipse opacity="0.4" cx="69.0335" cy="68.7985" rx="37" ry="37.5" transform="rotate(15 69.0335 68.7985)" fill="#FFF006"/>
<path fill-rule="evenodd" clip-rule="evenodd" d="M8.78208 40.0134L135.482 73.9624L135.899 87.5329L128.752 99.0765L2.05278 65.1274L1.63535 51.557L8.78208 40.0134Z" fill="#E70658"/>
<path d="M20.9013 87.0999L25.4178 85.3332L25.0794 84.2866L25.7796 84.0127L26.395 85.9156L21.1782 87.9562L20.9013 87.0999Z" fill="black"/>
<path fill-rule="evenodd" clip-rule="evenodd" d="M23.169 91.1364C23.1053 91.5308 23.1893 91.927 23.4209 92.3248C23.6525 92.7227 23.9739 93.0229 24.385 93.2253C24.7961 93.4278 25.2621 93.5271 25.783 93.5233C26.3038 93.5196 26.8465 93.4052 27.4109 93.1803C27.9754 92.9554 28.4211 92.6745 28.748 92.3377C29.075 92.0008 29.2697 91.6368 29.3322 91.2456C29.3948 90.8544 29.3102 90.4599 29.0786 90.062C28.8469 89.6641 28.5268 89.3635 28.1181 89.1601C27.7095 88.9566 27.2453 88.8552 26.7256 88.8558C26.2059 88.8563 25.6614 88.97 25.092 89.1969C24.5276 89.4219 24.0819 89.7027 23.7549 90.0396C23.428 90.3764 23.2326 90.742 23.169 91.1364ZM25.2067 92.148C24.9439 92.0423 24.7412 91.8782 24.5987 91.6556C24.4562 91.433 24.4121 91.2117 24.4664 90.9916C24.5207 90.7715 24.6656 90.5653 24.9013 90.3731C25.1369 90.1808 25.4514 90.0153 25.8447 89.8765C26.2427 89.7361 26.6153 89.6592 26.9626 89.6458C27.3099 89.6324 27.615 89.6786 27.8778 89.7843C28.1406 89.89 28.3433 90.0542 28.4858 90.2767C28.6309 90.5034 28.6756 90.7257 28.6201 90.9438C28.5645 91.1618 28.4201 91.3666 28.1868 91.558C27.9535 91.7495 27.6378 91.9154 27.2398 92.0558C26.8419 92.1963 26.4692 92.2732 26.1219 92.2865C25.7746 92.2999 25.4696 92.2538 25.2067 92.148Z" fill="black"/>
<path fill-rule="evenodd" clip-rule="evenodd" d="M25.947 97.1246C25.9144 97.5843 26.0108 98.0153 26.236 98.4174C26.4613 98.8196 26.7592 99.0924 27.1296 99.2359C27.5001 99.3794 27.9124 99.3947 28.3666 99.2818C28.8207 99.169 29.2875 98.9264 29.7668 98.5541C30.2461 98.1818 30.6185 97.771 30.8841 97.3215C31.1497 96.872 31.2984 96.4193 31.3301 95.9635C31.3619 95.5076 31.2651 95.0786 31.0398 94.6764C30.8146 94.2743 30.5177 94.0006 30.1494 93.8555C29.781 93.7104 29.3701 93.6924 28.9168 93.8013C28.4634 93.9103 27.995 94.1525 27.5115 94.5281C27.0322 94.9004 26.6598 95.3112 26.3942 95.7607C26.1286 96.2102 25.9795 96.6648 25.947 97.1246ZM27.861 98.1036C27.6457 98.0405 27.4785 97.8907 27.3594 97.6542C27.2403 97.4177 27.2012 97.1579 27.2422 96.8748C27.2832 96.5917 27.3981 96.3027 27.587 96.0079C27.7759 95.713 28.0294 95.4311 28.3473 95.1619C28.669 94.8896 28.971 94.7015 29.2533 94.5975C29.5356 94.4934 29.7845 94.473 29.9998 94.5361C30.2151 94.5992 30.3823 94.749 30.5014 94.9855C30.6227 95.2263 30.6623 95.4872 30.6202 95.7682C30.5782 96.0491 30.4636 96.3362 30.2766 96.6294C30.0896 96.9227 29.8352 97.2055 29.5135 97.4778C29.1918 97.7501 28.8898 97.9382 28.6075 98.0423C28.3251 98.1463 28.0763 98.1667 27.861 98.1036Z" fill="black"/>
<path fill-rule="evenodd" clip-rule="evenodd" d="M32.7545 100.574C32.6785 100.442 32.6254 100.302 32.5953 100.153C32.543 99.8962 32.5539 99.6416 32.628 99.3897C32.7021 99.1377 32.8408 98.9184 33.0441 98.7317C33.2475 98.545 33.4787 98.4247 33.7379 98.3706C33.997 98.3166 34.2516 98.3274 34.5016 98.4032C34.7516 98.479 34.9716 98.6205 35.1617 98.8276C35.3518 99.0348 35.4739 99.2661 35.5281 99.5217C35.5823 99.7773 35.5705 100.031 35.4928 100.283C35.4151 100.534 35.2746 100.754 35.0713 100.94C34.8679 101.127 34.6385 101.248 34.3829 101.302C34.1274 101.356 33.8737 101.346 33.6218 101.272C33.5313 101.245 33.4448 101.21 33.3623 101.166C33.3826 101.173 33.4031 101.179 33.4239 101.184C33.5958 101.226 33.7659 101.224 33.9344 101.177C34.1028 101.13 34.2493 101.05 34.374 100.938C34.5035 100.821 34.598 100.683 34.6574 100.524C34.7168 100.365 34.7325 100.199 34.7045 100.027C34.6765 99.8552 34.5936 99.6953 34.4559 99.5477C34.3227 99.4049 34.169 99.3112 33.9949 99.2667C33.8208 99.2221 33.6496 99.221 33.4814 99.2633C33.3131 99.3055 33.1643 99.3852 33.0348 99.5021C32.9101 99.6148 32.8179 99.7528 32.7583 99.9163C32.6988 100.08 32.6841 100.249 32.7143 100.423C32.7232 100.475 32.7366 100.525 32.7545 100.574ZM32.7545 100.574C32.7973 100.69 32.8656 100.799 32.9595 100.899C33.0806 101.029 33.2148 101.118 33.3623 101.166C33.2152 101.088 33.0807 100.983 32.9589 100.85C32.8784 100.762 32.8103 100.67 32.7545 100.574ZM29.3648 102.37L36.9197 101.854L37.5858 102.598L30.0309 103.114L29.3648 102.37ZM32.7491 105.561C32.6769 105.432 32.6258 105.296 32.5958 105.152C32.5419 104.893 32.5528 104.639 32.6286 104.389C32.7043 104.139 32.8437 103.921 33.0469 103.734C33.25 103.548 33.4801 103.427 33.7373 103.371C33.9944 103.315 34.2487 103.326 34.5001 103.403C34.7515 103.481 34.9721 103.623 35.162 103.83C35.3518 104.037 35.4738 104.268 35.5279 104.523C35.582 104.779 35.5702 105.032 35.4925 105.284C35.4149 105.535 35.2745 105.754 35.0714 105.941C34.8683 106.128 34.6391 106.248 34.3838 106.302C34.1286 106.356 33.8752 106.346 33.6236 106.272C33.5341 106.246 33.4485 106.211 33.3667 106.168C33.3851 106.174 33.4037 106.179 33.4225 106.183C33.5926 106.223 33.7632 106.221 33.9342 106.177C34.1053 106.132 34.2533 106.053 34.3783 105.941C34.5081 105.824 34.6016 105.684 34.6589 105.523C34.7162 105.361 34.7318 105.196 34.7059 105.026C34.68 104.856 34.598 104.697 34.4599 104.549C34.3262 104.406 34.1721 104.312 33.9976 104.267C33.823 104.223 33.6514 104.222 33.4827 104.264C33.3141 104.306 33.1648 104.386 33.035 104.503C32.9101 104.616 32.8177 104.754 32.7581 104.917C32.6984 105.081 32.6837 105.25 32.7141 105.425C32.7221 105.471 32.7338 105.516 32.7491 105.561ZM32.7491 105.561C32.7915 105.683 32.8619 105.797 32.9601 105.902C33.083 106.033 33.2185 106.122 33.3667 106.168C33.2189 106.09 33.0838 105.984 32.9615 105.851C32.8773 105.759 32.8065 105.662 32.7491 105.561Z" fill="black"/>
<path d="M40.0181 112.042C39.7232 111.831 39.4894 111.579 39.3165 111.286C39.1437 110.992 39.0381 110.685 38.9999 110.364C38.9617 110.043 38.9909 109.725 39.0876 109.411L39.9095 109.597C39.8152 109.97 39.8218 110.314 39.9293 110.627C40.0367 110.94 40.2337 111.2 40.5202 111.405C40.6887 111.526 40.855 111.605 41.0191 111.642C41.1832 111.68 41.3346 111.675 41.4735 111.628C41.6124 111.58 41.7271 111.493 41.8175 111.366C41.9412 111.193 41.9907 111.021 41.9662 110.85C41.9417 110.679 41.8558 110.496 41.7084 110.301L41.0228 109.388C40.7473 109.025 40.5976 108.663 40.5735 108.304C40.5495 107.945 40.6461 107.614 40.8632 107.309C41.0532 107.043 41.2851 106.856 41.559 106.748C41.8328 106.641 42.1252 106.612 42.4363 106.663C42.7473 106.713 43.0502 106.844 43.3451 107.055C43.6274 107.257 43.8489 107.491 44.0098 107.756C44.1706 108.022 44.2724 108.301 44.3152 108.593C44.3579 108.886 44.3358 109.173 44.2488 109.456L43.435 109.285C43.5202 108.969 43.5132 108.674 43.4138 108.398C43.3144 108.122 43.1362 107.892 42.8792 107.708C42.7233 107.597 42.5676 107.525 42.4119 107.493C42.2563 107.462 42.1104 107.472 41.9742 107.525C41.838 107.578 41.7232 107.669 41.6297 107.801C41.5211 107.953 41.4731 108.123 41.4855 108.311C41.498 108.499 41.5821 108.693 41.7379 108.894L42.3739 109.742C42.6674 110.125 42.8328 110.491 42.8701 110.841C42.9074 111.19 42.8129 111.523 42.5867 111.84C42.3998 112.103 42.1654 112.286 41.8838 112.391C41.6021 112.496 41.2997 112.521 40.9767 112.465C40.6536 112.409 40.3341 112.268 40.0181 112.042Z" fill="black"/>
<path fill-rule="evenodd" clip-rule="evenodd" d="M47.1171 109.835L42.7309 113.736L43.5858 114.178L44.564 113.302L46.6198 114.366L46.4217 115.647L47.2766 116.09L48.1077 110.348L47.1171 109.835ZM47.1553 113.415L45.3219 112.53L47.5248 110.794L47.1553 113.415ZM47.5248 110.794L47.8367 110.548L47.5771 110.423L47.5248 110.794Z" fill="black"/>
<path d="M50.3994 116.945L52.2119 112.339L50.7911 111.779L51.0884 111.024L54.748 112.466L54.4507 113.222L53.0514 112.67L51.239 117.276L50.3994 116.945Z" fill="black"/>
<path d="M54.4562 118.761L56.1852 113.05L56.9566 113.293L55.2275 119.005L54.4562 118.761Z" fill="black"/>
<path d="M59.609 119.369C59.2742 119.303 58.9774 119.173 58.7186 118.98C58.4598 118.788 58.2544 118.554 58.1023 118.28C57.9503 118.005 57.8583 117.705 57.8264 117.38L58.6106 117.201C58.6665 117.579 58.7991 117.887 59.0085 118.126C59.218 118.364 59.4853 118.516 59.8105 118.581C60.0018 118.619 60.1758 118.621 60.3325 118.585C60.4893 118.55 60.6193 118.482 60.7227 118.38C60.826 118.279 60.8936 118.152 60.9254 117.999C60.9689 117.789 60.9484 117.613 60.8639 117.468C60.7794 117.324 60.637 117.194 60.4366 117.08L59.5024 116.543C59.1282 116.33 58.8643 116.066 58.7107 115.751C58.5571 115.436 58.5185 115.095 58.5949 114.728C58.6618 114.406 58.7946 114.139 58.9932 113.926C59.1919 113.714 59.4359 113.565 59.7252 113.479C60.0145 113.393 60.3266 113.384 60.6613 113.451C60.9818 113.515 61.261 113.633 61.4991 113.805C61.7372 113.978 61.9289 114.187 62.0743 114.434C62.2197 114.681 62.3068 114.951 62.3356 115.244L61.5641 115.432C61.5215 115.11 61.406 114.845 61.2176 114.638C61.0291 114.43 60.7891 114.297 60.4973 114.239C60.3204 114.203 60.1583 114.204 60.0111 114.241C59.864 114.278 59.7408 114.349 59.6418 114.455C59.5427 114.56 59.4767 114.691 59.4438 114.849C59.4056 115.033 59.4266 115.207 59.5069 115.372C59.5871 115.537 59.7322 115.677 59.9421 115.794L60.8094 116.294C61.2064 116.516 61.4857 116.778 61.6473 117.079C61.8089 117.379 61.8499 117.721 61.7703 118.103C61.7045 118.42 61.5684 118.685 61.362 118.899C61.1556 119.112 60.9015 119.262 60.5997 119.348C60.2979 119.434 59.9677 119.441 59.609 119.369Z" fill="black"/>
<path d="M63.4442 120.063L63.8358 114.612L67.5777 114.959L67.5225 115.727L64.691 115.465L64.5733 117.104L67.0962 117.337L67.041 118.105L64.5181 117.872L64.3546 120.147L63.4442 120.063Z" fill="black"/>
<path fill-rule="evenodd" clip-rule="evenodd" d="M70.1396 115.361L68.447 120.796L69.4249 120.779L69.7987 119.56L72.1505 119.52L72.6693 120.723L73.6473 120.706L71.2729 115.341L70.1396 115.361ZM72.2855 118.93L70.3771 118.939L71.1432 116.424L72.2855 118.93ZM71.1432 116.424L71.2517 116.067L70.9814 116.069L71.1432 116.424Z" fill="black"/>
<path d="M78.7261 119.662C78.3051 119.726 77.9009 119.711 77.5135 119.616C77.1261 119.522 76.7759 119.362 76.4629 119.136C76.15 118.911 75.8854 118.629 75.6694 118.291C75.4533 117.953 75.3052 117.567 75.225 117.134C75.1457 116.706 75.1457 116.299 75.2249 115.913C75.3041 115.527 75.4524 115.181 75.6697 114.874C75.8869 114.568 76.1605 114.314 76.4903 114.113C76.8202 113.911 77.1983 113.778 77.6246 113.713C78.0456 113.649 78.4355 113.661 78.7944 113.749C79.1532 113.838 79.468 113.977 79.7387 114.166C80.0094 114.356 80.2197 114.574 80.3696 114.822L79.5939 115.338C79.4087 115.048 79.1583 114.827 78.8428 114.677C78.5272 114.526 78.1722 114.481 77.7778 114.541C77.3835 114.601 77.0511 114.745 76.7808 114.971C76.5105 115.198 76.321 115.484 76.2123 115.83C76.1037 116.175 76.089 116.562 76.1682 116.99C76.2475 117.418 76.4009 117.78 76.6284 118.077C76.856 118.374 77.1381 118.588 77.4748 118.719C77.8115 118.851 78.177 118.887 78.5714 118.827C78.9657 118.766 79.2851 118.62 79.5296 118.386C79.774 118.153 79.9316 117.871 80.0022 117.542L80.9211 117.8C80.8676 118.073 80.7473 118.341 80.5601 118.603C80.373 118.865 80.1258 119.091 79.8185 119.281C79.5112 119.471 79.1471 119.598 78.7261 119.662Z" fill="black"/>
<path d="M83.554 117.896L82.1329 113.289L80.7052 113.726L80.472 112.97L84.1496 111.844L84.3827 112.6L82.9766 113.03L84.3977 117.638L83.554 117.896Z" fill="black"/>
<path d="M87.8876 116.682L85.8643 111.506L86.6817 111.183L88.7051 116.359L87.8876 116.682Z" fill="black"/>
<path fill-rule="evenodd" clip-rule="evenodd" d="M92.392 114.657C92.7788 114.62 93.1565 114.503 93.5252 114.306C93.8939 114.109 94.2023 113.86 94.4504 113.558C94.6986 113.255 94.8778 112.923 94.9882 112.559C95.0985 112.196 95.1358 111.819 95.1 111.429C95.0642 111.039 94.9454 110.654 94.7437 110.277C94.5421 109.899 94.2902 109.586 93.9881 109.337C93.686 109.089 93.3523 108.911 92.987 108.802C92.6217 108.693 92.2463 108.658 91.8607 108.697C91.4751 108.736 91.0957 108.855 90.7225 109.055C90.3538 109.252 90.0448 109.5 89.7954 109.8C89.546 110.1 89.3656 110.431 89.254 110.791C89.1425 111.152 89.1052 111.529 89.1422 111.922C89.1792 112.315 89.2986 112.7 89.5003 113.078C89.7019 113.456 89.9549 113.768 90.2593 114.015C90.5637 114.262 90.8985 114.44 91.2638 114.549C91.6291 114.658 92.0052 114.694 92.392 114.657ZM93.9781 112.727C93.8183 112.928 93.6141 113.094 93.3655 113.227C93.1212 113.357 92.8699 113.433 92.6118 113.454C92.3536 113.476 92.1044 113.448 91.8641 113.37C91.6238 113.292 91.404 113.167 91.2047 112.995C91.0053 112.823 90.838 112.611 90.7028 112.359C90.5675 112.106 90.4844 111.851 90.4534 111.592C90.4223 111.334 90.4404 111.082 90.5076 110.837C90.5748 110.592 90.6883 110.37 90.8481 110.169C91.0078 109.969 91.212 109.802 91.4606 109.67C91.7092 109.538 91.9616 109.461 92.2176 109.44C92.4736 109.419 92.7224 109.449 92.9638 109.53C93.2052 109.61 93.4261 109.735 93.6264 109.903C93.8268 110.071 93.9946 110.282 94.1298 110.534C94.2651 110.787 94.3477 111.044 94.3777 111.306C94.4078 111.568 94.3886 111.82 94.3202 112.062C94.2519 112.305 94.1378 112.527 93.9781 112.727Z" fill="black"/>
<path d="M98.3437 111.875L95.1017 107.352L95.6707 106.921L100.685 108.528L100.446 108.774L97.905 105.229L98.6059 104.698L101.848 109.221L101.279 109.652L96.2646 108.007L96.4874 107.764L99.0505 111.34L98.3437 111.875Z" fill="black"/>
<path d="M35.3698 40.3115L31.787 36.6173L31.0094 37.6104L30.4539 37.0376L31.8677 35.232L36.006 39.499L35.3698 40.3115Z" fill="black"/>
<path fill-rule="evenodd" clip-rule="evenodd" d="M39.1556 35.8851C39.6021 35.858 40.0043 35.7021 40.362 35.4171C40.7198 35.1322 40.9438 34.7896 41.0339 34.3893C41.1241 33.989 41.0856 33.5625 40.9184 33.1098C40.7511 32.6571 40.4575 32.2085 40.0374 31.7641C39.6174 31.3197 39.174 30.9904 38.7073 30.7761C38.2406 30.5619 37.7859 30.4685 37.3432 30.4959C36.9006 30.5233 36.5004 30.6794 36.1426 30.9643C35.7848 31.2492 35.56 31.5909 35.468 31.9892C35.376 32.3876 35.4117 32.813 35.575 33.2654C35.7384 33.7178 36.032 34.1681 36.4557 34.6164C36.8758 35.0608 37.3191 35.3901 37.7858 35.6043C38.2526 35.8186 38.7092 35.9121 39.1556 35.8851ZM40.3688 33.8538C40.3372 34.0891 40.2173 34.2855 40.0091 34.4428C39.801 34.6002 39.5604 34.6763 39.2875 34.6712C39.0145 34.6661 38.7264 34.5839 38.4231 34.4245C38.1197 34.2652 37.8202 34.0361 37.5244 33.7373C37.2252 33.435 37.008 33.1421 36.873 32.8586C36.7379 32.5752 36.6862 32.3158 36.7179 32.0804C36.7495 31.845 36.8694 31.6487 37.0776 31.4913C37.2895 31.3311 37.531 31.2543 37.802 31.2608C38.0731 31.2673 38.3594 31.3494 38.661 31.507C38.9625 31.6645 39.263 31.8945 39.5622 32.1968C39.8615 32.4992 40.0787 32.7921 40.2137 33.0755C40.3488 33.359 40.4005 33.6184 40.3688 33.8538Z" fill="black"/>
<path fill-rule="evenodd" clip-rule="evenodd" d="M44.5111 31.835C44.9769 31.8631 45.423 31.7399 45.8494 31.4654C46.2758 31.1908 46.5759 30.8335 46.7496 30.3935C46.9234 29.9535 46.9697 29.467 46.8887 28.9339C46.8076 28.4009 46.5953 27.8559 46.2519 27.299C45.9085 26.7421 45.5178 26.312 45.0798 26.0088C44.6418 25.7056 44.1918 25.5403 43.7299 25.513C43.268 25.4857 42.8238 25.6093 42.3974 25.8839C41.971 26.1584 41.6702 26.5145 41.495 26.9521C41.3197 27.3897 41.2707 27.8746 41.3479 28.4068C41.425 28.9389 41.6368 29.4859 41.9833 30.0477C42.3267 30.6046 42.7174 31.0346 43.1554 31.3379C43.5934 31.6411 44.0453 31.8068 44.5111 31.835ZM46.1364 29.7443C46.0481 30.0271 45.8756 30.2521 45.619 30.4192C45.3623 30.5863 45.0903 30.6508 44.803 30.6125C44.5157 30.5743 44.2303 30.4404 43.9469 30.2108C43.6635 29.9811 43.4003 29.6671 43.1574 29.2686C42.9115 28.8654 42.7503 28.4833 42.6737 28.1224C42.597 27.7614 42.6029 27.4395 42.6912 27.1567C42.7795 26.8739 42.952 26.6489 43.2087 26.4818C43.47 26.3117 43.7432 26.2465 44.0282 26.2862C44.3131 26.3259 44.5966 26.4595 44.8786 26.6867C45.1606 26.914 45.4244 27.2292 45.6703 27.6324C45.9161 28.0356 46.0773 28.4177 46.154 28.7786C46.2306 29.1396 46.2248 29.4615 46.1364 29.7443Z" fill="black"/>
<path fill-rule="evenodd" clip-rule="evenodd" d="M49.9294 28.7277L52.0984 21.6335L52.9659 21.2591L50.7968 28.3533L49.9294 28.7277ZM49.6205 25.2273C49.3608 25.3318 49.1017 25.3636 48.8433 25.3225C48.5839 25.2813 48.3492 25.1818 48.1393 25.024C47.9293 24.8663 47.7725 24.6594 47.669 24.4035C47.5654 24.1475 47.5338 23.8887 47.5741 23.6269C47.6144 23.3651 47.7138 23.1304 47.8725 22.9228C48.0312 22.7152 48.2409 22.5586 48.5016 22.4532C48.7623 22.3477 49.0219 22.3144 49.2803 22.3532C49.5387 22.3921 49.7722 22.492 49.9807 22.6531C50.1893 22.8142 50.3453 23.0227 50.4489 23.2787C50.5125 23.4359 50.5492 23.5936 50.5591 23.7517C50.4971 23.6385 50.4168 23.5396 50.3183 23.4549C50.188 23.3429 50.0365 23.2691 49.8638 23.2333C49.6912 23.1976 49.5113 23.2169 49.3242 23.2915C49.1431 23.3636 49.0017 23.4723 48.8998 23.6175C48.7979 23.7626 48.7381 23.9207 48.7205 24.0915C48.7029 24.2624 48.7273 24.4287 48.7938 24.5904C48.8578 24.7462 48.957 24.8809 49.0915 24.9947C49.226 25.1084 49.3811 25.1825 49.5568 25.2171C49.578 25.2213 49.5992 25.2247 49.6205 25.2273ZM50.0919 25.1607C49.9327 25.2242 49.7756 25.2463 49.6205 25.2273L49.6234 25.2261C49.884 25.1206 50.0933 24.9629 50.251 24.7529C50.4087 24.5429 50.507 24.3087 50.5459 24.0503C50.5609 23.9506 50.5653 23.8511 50.5591 23.7517C50.579 23.7881 50.5971 23.826 50.6133 23.8654C50.6773 24.0212 50.7026 24.1854 50.6892 24.358C50.6758 24.5307 50.6197 24.689 50.5208 24.8329C50.422 24.9769 50.279 25.0862 50.0919 25.1607ZM54.6161 27.2272C54.3587 27.3298 54.1007 27.3612 53.8423 27.3214C53.5809 27.2812 53.3466 27.1819 53.1393 27.0233C52.9319 26.8648 52.7766 26.6577 52.6732 26.402C52.5698 26.1464 52.5371 25.8882 52.575 25.6277C52.6128 25.3672 52.7122 25.1327 52.8731 24.9244C53.034 24.716 53.2446 24.5591 53.5049 24.4537C53.7653 24.3483 54.0245 24.315 54.2825 24.3538C54.5406 24.3926 54.7737 24.4924 54.982 24.6533C55.1903 24.8142 55.3461 25.0225 55.4495 25.2782C55.5116 25.4318 55.548 25.586 55.5588 25.7405C55.4968 25.6314 55.4166 25.536 55.3184 25.4545C55.1847 25.3435 55.0328 25.2695 54.8627 25.2324C54.6925 25.1953 54.5136 25.2141 54.3261 25.2887C54.1445 25.361 54.0027 25.4698 53.9006 25.6152C53.7984 25.7606 53.7386 25.9189 53.721 26.09C53.7034 26.2612 53.7279 26.4278 53.7946 26.5899C53.8587 26.7459 53.9583 26.881 54.0932 26.9949C54.2281 27.1089 54.3836 27.1832 54.5598 27.2179C54.5786 27.2216 54.5973 27.2247 54.6161 27.2272ZM54.6161 27.2272C54.619 27.226 54.622 27.2248 54.6249 27.2236C54.8852 27.1182 55.0942 26.9607 55.2517 26.7509C55.4093 26.5411 55.5074 26.3071 55.5463 26.0489C55.5618 25.9459 55.5659 25.8431 55.5588 25.7405C55.5812 25.7799 55.6012 25.8211 55.6189 25.864C55.6831 26.0201 55.707 26.1852 55.6906 26.3594C55.6742 26.5335 55.618 26.6921 55.5219 26.8351C55.4259 26.9781 55.284 27.0869 55.0964 27.1616C54.9342 27.2261 54.7741 27.248 54.6161 27.2272Z" fill="black"/>
<path d="M63.1011 24.5471C62.7438 24.6051 62.4026 24.5893 62.0775 24.4998C61.7524 24.4103 61.4663 24.2622 61.2193 24.0553C60.9722 23.8485 60.7763 23.5957 60.6316 23.2971L61.3525 22.8419C61.5393 23.182 61.7786 23.4277 62.0703 23.5789C62.3621 23.7302 62.6815 23.7777 63.0286 23.7213C63.2328 23.6882 63.407 23.6263 63.5512 23.5358C63.6955 23.4453 63.8016 23.3328 63.8694 23.1983C63.9373 23.0638 63.9606 22.9177 63.9393 22.7601C63.9102 22.5447 63.8284 22.3835 63.6939 22.2765C63.5594 22.1695 63.3724 22.0978 63.1327 22.0616L62.0139 21.8889C61.5666 21.8219 61.2117 21.6662 60.9491 21.4216C60.6865 21.177 60.5296 20.8656 60.4784 20.4873C60.4337 20.1564 60.4735 19.8533 60.598 19.578C60.7225 19.3028 60.9142 19.0717 61.1733 18.8847C61.4323 18.6977 61.7404 18.5752 62.0977 18.5172C62.4397 18.4617 62.7595 18.4728 63.0569 18.5507C63.3544 18.6286 63.6185 18.7588 63.8492 18.9415C64.08 19.1241 64.2605 19.3498 64.3908 19.6186L63.6862 20.0793C63.532 19.7876 63.3248 19.5769 63.0647 19.4473C62.8046 19.3178 62.5189 19.2783 62.2075 19.3288C62.0187 19.3595 61.8572 19.4192 61.7232 19.5081C61.5891 19.597 61.4909 19.7096 61.4285 19.8459C61.366 19.9822 61.3458 20.1317 61.3679 20.2946C61.3934 20.4837 61.4749 20.6423 61.6122 20.7703C61.7495 20.8984 61.9431 20.9797 62.1929 21.0143L63.232 21.1757C63.7055 21.2438 64.075 21.3919 64.3406 21.6199C64.6062 21.8479 64.7657 22.1589 64.8189 22.5529C64.863 22.8786 64.8191 23.181 64.6873 23.4601C64.5556 23.7392 64.354 23.9746 64.0825 24.1663C63.8111 24.358 63.484 24.4849 63.1011 24.5471Z" fill="black"/>
<path fill-rule="evenodd" clip-rule="evenodd" d="M68.3939 18.4322L66.1881 24.7615L67.1669 24.7419L67.6556 23.3232L70.0092 23.276L70.4138 24.6768L71.3925 24.6572L69.5279 18.4094L68.3939 18.4322ZM70.2672 21.9977L68.2367 21.9013L69.1432 19.4237L70.2672 21.9977ZM69.1432 19.4237L69.2716 19.0728L68.984 19.0592L69.1432 19.4237Z" fill="black"/>
<path d="M74.6263 24.379L75.2739 19.4933L73.762 19.2928L73.8682 18.4912L77.7624 19.0077L77.6562 19.8092L76.1672 19.6118L75.5196 24.4975L74.6263 24.379Z" fill="black"/>
<path d="M78.6523 24.8511L79.9894 19.0395L80.7605 19.2043L79.4233 25.0159L78.6523 24.8511Z" fill="black"/>
<path d="M84.345 26.2967C84.0353 26.1878 83.7696 26.0215 83.5479 25.7979C83.3262 25.5742 83.1604 25.3166 83.0506 25.025C82.9407 24.7335 82.8911 24.4246 82.9017 24.0984L83.6695 24.0217C83.6749 24.4031 83.7622 24.7252 83.9311 24.9881C84.1001 25.251 84.335 25.4353 84.6359 25.541C84.8128 25.6032 84.978 25.6269 85.1314 25.6121C85.2848 25.5972 85.417 25.5461 85.528 25.4586C85.6389 25.3711 85.7192 25.2536 85.7688 25.1061C85.8365 24.9044 85.8393 24.7267 85.7772 24.5729C85.715 24.419 85.596 24.2727 85.42 24.1339L84.5999 23.4827C84.2712 23.2241 84.0537 22.9291 83.9474 22.5975C83.8411 22.2659 83.8474 21.9231 83.9663 21.5689C84.0703 21.2591 84.2302 21.0114 84.4458 20.826C84.6614 20.6406 84.9121 20.5238 85.1978 20.4758C85.4835 20.4277 85.7813 20.4581 86.091 20.567C86.3874 20.6712 86.6379 20.8238 86.8424 21.0249C87.0469 21.2261 87.2027 21.4582 87.3098 21.7213C87.4168 21.9844 87.4656 22.2627 87.456 22.5563L86.6991 22.645C86.6992 22.3205 86.6228 22.0435 86.4699 21.8138C86.3171 21.5841 86.1057 21.4218 85.8358 21.3269C85.6721 21.2694 85.518 21.2496 85.3734 21.2675C85.2289 21.2855 85.1029 21.3402 84.9955 21.4316C84.8881 21.5231 84.8088 21.6451 84.7576 21.7976C84.6982 21.9747 84.6962 22.1499 84.7517 22.3234C84.8072 22.4969 84.9274 22.6547 85.1122 22.7966L85.8734 23.4024C86.2226 23.6736 86.455 23.9684 86.5707 24.2867C86.6864 24.6051 86.6823 24.9487 86.5584 25.3176C86.456 25.6226 86.2933 25.8679 86.0702 26.0534C85.8471 26.239 85.5868 26.3551 85.2892 26.4017C84.9916 26.4483 84.6768 26.4133 84.345 26.2967Z" fill="black"/>
<path d="M88.4965 28.6108L91.1689 23.3132L94.626 25.0535L94.2494 25.8001L91.6333 24.4833L90.8298 26.0761L93.1607 27.2494L92.7841 27.996L90.4532 26.8227L89.3376 29.0342L88.4965 28.6108Z" fill="black"/>
<path fill-rule="evenodd" clip-rule="evenodd" d="M97.7848 27.0141L92.6762 30.9401L93.486 31.5242L94.6265 30.6408L96.5739 32.0454L96.1726 33.462L96.9825 34.0461L98.7232 27.691L97.7848 27.0141ZM96.8678 30.3383L95.3717 29.3445L97.5957 27.8129L96.8678 30.3383ZM97.5957 27.8129L97.9107 27.596L97.6988 27.4552L97.5957 27.8129Z" fill="black"/>
<path d="M100.059 36.8716C99.7456 36.5872 99.5078 36.2688 99.3455 35.9161C99.1833 35.5635 99.0978 35.2007 99.0889 34.8278C99.0801 34.4549 99.1476 34.0856 99.2915 33.7201C99.4353 33.3546 99.6602 33.013 99.9662 32.6953C100.268 32.3814 100.603 32.1406 100.968 31.9729C101.334 31.8053 101.71 31.714 102.096 31.6992C102.482 31.6844 102.86 31.7436 103.23 31.877C103.599 32.0103 103.943 32.221 104.26 32.5089C104.574 32.7932 104.805 33.0989 104.955 33.426C105.105 33.7531 105.186 34.0762 105.198 34.3955C105.21 34.7148 105.161 35.0051 105.051 35.2664L104.147 34.9778C104.27 34.6645 104.296 34.3424 104.224 34.0116C104.152 33.6808 103.969 33.3823 103.676 33.1159C103.382 32.8496 103.059 32.68 102.705 32.6073C102.351 32.5345 101.999 32.5587 101.648 32.6798C101.297 32.8009 100.971 33.0184 100.669 33.3323C100.366 33.6462 100.164 33.9781 100.061 34.3278C99.9584 34.6776 99.9574 35.0203 100.058 35.3559C100.158 35.6915 100.355 35.9925 100.649 36.2589C100.943 36.5252 101.261 36.6829 101.604 36.7319C101.947 36.7809 102.276 36.7352 102.59 36.5946L102.947 37.4505C102.69 37.5712 102.396 37.6374 102.065 37.6491C101.734 37.6607 101.395 37.6051 101.049 37.4823C100.702 37.3595 100.373 37.1559 100.059 36.8716Z" fill="black"/>
<path d="M104.585 41.2808L108.254 38.2036L107.382 37.0365L107.984 36.5317L110.228 39.5376L109.626 40.0425L108.768 38.8932L105.1 41.9704L104.585 41.2808Z" fill="black"/>
<path d="M106.865 44.2345L112.098 41.0981L112.67 41.8892L107.437 45.0256L106.865 44.2345Z" fill="black"/>
<path fill-rule="evenodd" clip-rule="evenodd" d="M109.13 48.8273C109.151 49.2153 109.253 49.5975 109.435 49.9737C109.618 50.3499 109.855 50.668 110.147 50.9279C110.439 51.1878 110.765 51.3801 111.123 51.5047C111.482 51.6293 111.857 51.6814 112.249 51.6611C112.64 51.6407 113.029 51.5372 113.414 51.3506C113.8 51.1639 114.123 50.9246 114.383 50.6325C114.643 50.3404 114.834 50.0139 114.958 49.6532C115.081 49.2924 115.131 48.9186 115.107 48.5317C115.083 48.1448 114.979 47.7609 114.794 47.38C114.612 47.0038 114.376 46.6851 114.086 46.4241C113.796 46.163 113.473 45.9696 113.117 45.8439C112.761 45.7182 112.386 45.6661 111.992 45.6876C111.598 45.7091 111.208 45.8131 110.822 45.9998C110.437 46.1864 110.115 46.4269 109.856 46.7213C109.597 47.0157 109.406 47.3433 109.282 47.7041C109.159 48.0649 109.108 48.4393 109.13 48.8273ZM111.076 49.9646C110.882 49.7969 110.724 49.5861 110.602 49.3322C110.482 49.0826 110.417 48.8282 110.405 48.569C110.393 48.3098 110.432 48.0615 110.519 47.8241C110.607 47.5867 110.741 47.3716 110.92 47.1788C111.099 46.986 111.318 46.8268 111.575 46.7013C111.833 46.5758 112.091 46.5025 112.35 46.4815C112.609 46.4605 112.86 46.4884 113.101 46.5652C113.343 46.642 113.561 46.7642 113.754 46.9319C113.948 47.0995 114.106 47.3103 114.228 47.5643C114.35 47.8182 114.416 48.0737 114.427 48.3307C114.437 48.5877 114.398 48.8355 114.308 49.0739C114.218 49.3124 114.085 49.5286 113.909 49.7225C113.732 49.9165 113.516 50.0762 113.258 50.2017C113.001 50.3272 112.741 50.3999 112.478 50.4198C112.216 50.4397 111.965 50.4107 111.726 50.3329C111.486 50.255 111.27 50.1323 111.076 49.9646Z" fill="black"/>
<path d="M112.208 54.9552L117.572 53.2252L117.762 53.9385L114.443 58.4172L114.303 58.0956L118.508 56.7394L118.741 57.6179L113.377 59.348L113.187 58.6346L116.541 54.1692L116.685 54.4735L112.444 55.8413L112.208 54.9552Z" fill="black"/>
<path d="M12.8984 61.2705C11.9708 61.022 11.1584 60.6221 10.461 60.0708C9.7637 59.5196 9.20104 58.8599 8.77306 58.0919C8.34508 57.3238 8.07581 56.4852 7.96525 55.576C7.85469 54.6668 7.92977 53.7257 8.1905 52.7527C8.45123 51.7796 8.85175 50.9226 9.39206 50.1815C9.93237 49.4404 10.5762 48.8465 11.3235 48.3996C12.0708 47.9527 12.8834 47.6679 13.7614 47.545C14.6394 47.4222 15.5421 47.485 16.4697 47.7336C17.3973 47.9821 18.1868 48.3633 18.8382 48.8771C19.4897 49.3909 20.0006 49.977 20.371 50.6354C20.7414 51.2938 20.9535 51.9632 21.0073 52.6435L18.6295 53.0996C18.5682 52.3544 18.3043 51.6931 17.8376 51.1157C17.371 50.5383 16.7202 50.1378 15.8854 49.9141C15.0738 49.6966 14.306 49.6982 13.582 49.9189C12.858 50.1395 12.2339 50.544 11.7097 51.1323C11.1855 51.7206 10.8008 52.472 10.5558 53.3864C10.3108 54.3009 10.2732 55.1484 10.4431 55.9289C10.613 56.7095 10.9591 57.3771 11.4816 57.9318C12.004 58.4864 12.6711 58.8725 13.4827 59.0899C14.1436 59.267 14.7877 59.2982 15.4149 59.1836C16.0421 59.0689 16.589 58.8134 17.0556 58.417C17.5222 58.0206 17.8451 57.4882 18.0241 56.82L18.2927 55.8176L19.1166 57.0562L14.3164 55.77L14.8582 53.7477L20.9454 55.3787L20.592 56.6976C20.3219 57.7058 19.915 58.5518 19.3715 59.2354C18.8279 59.9191 18.1992 60.4448 17.4855 60.8127C16.7718 61.1806 16.0202 61.4002 15.2306 61.4713C14.4411 61.5425 13.6637 61.4755 12.8984 61.2705Z" fill="white"/>
<path d="M26.6891 64.9461C25.6566 64.6694 24.7986 64.2098 24.1151 63.5671C23.4316 62.9244 22.9622 62.1668 22.7071 61.2943C22.4519 60.4218 22.4519 59.5091 22.7072 58.5564L25 49.9996L27.4492 50.6559L25.1899 59.0876C25.0431 59.6354 25.0338 60.1627 25.1618 60.6692C25.2899 61.1758 25.5373 61.6091 25.9041 61.9691C26.2709 62.329 26.7304 62.583 27.2827 62.7309C27.8469 62.8821 28.3749 62.8928 28.8665 62.7628C29.3581 62.6329 29.786 62.3806 30.1502 62.0059C30.5144 61.6312 30.7699 61.1699 30.9167 60.6221L33.176 52.1904L35.6252 52.8466L33.3324 61.4034C33.0771 62.3562 32.6208 63.1465 31.9636 63.7746C31.3063 64.4026 30.5211 64.824 29.6078 65.0389C28.6945 65.2537 27.7216 65.2227 26.6891 64.9461Z" fill="white"/>
<path fill-rule="evenodd" clip-rule="evenodd" d="M41.6769 54.2532L33.3764 66.5229L36.0516 67.2397L37.8125 64.5988L43.0537 66.0032L43.2401 69.1659L45.9334 69.8876L44.8799 55.1114L41.6769 54.2532ZM42.6541 57.5536L43.0518 63.7967L39.1881 62.7615L42.6541 57.5536ZM42.5822 56.4239L42.6541 57.5536L43.2813 56.6113L42.5822 56.4239Z" fill="white"/>
<path fill-rule="evenodd" clip-rule="evenodd" d="M50.9999 57L47.3764 70.5229L49.9027 71.1998L51.2402 66.2081L53.6197 66.8457L55.141 72.6034L58.0016 73.3699L56.2794 67.0915C57.1315 66.9826 57.8711 66.662 58.4982 66.1296C59.1253 65.5973 59.5637 64.8652 59.8134 63.9334C60.0566 63.0258 60.0589 62.1997 59.8205 61.4548C59.5821 60.71 59.1452 60.0742 58.5099 59.5473C57.8747 59.0204 57.0864 58.6309 56.1453 58.3787L50.9999 57ZM54.5807 64.5646L51.9646 63.8637L52.9999 60L55.6159 60.7009C56.0672 60.8219 56.4357 61.0076 56.7215 61.2582C57.0073 61.5089 57.2034 61.8015 57.3098 62.1361C57.4162 62.4707 57.4169 62.8339 57.3119 63.2259C57.2098 63.6067 57.0283 63.9182 56.7674 64.1603C56.5064 64.4025 56.1895 64.5606 55.8167 64.6348C55.4439 64.7089 55.0319 64.6856 54.5807 64.5646Z" fill="white"/>
<path fill-rule="evenodd" clip-rule="evenodd" d="M65.6769 61.2532L57.3764 73.5229L60.0516 74.2397L61.8125 71.5988L67.0537 73.0032L67.2401 76.1659L69.9334 76.8876L68.8799 62.1114L65.6769 61.2532ZM66.6541 64.5536L67.0518 70.7967L63.1881 69.7615L66.6541 64.5536ZM66.5822 63.4239L66.6541 64.5536L67.2813 63.6113L66.5822 63.4239Z" fill="white"/>
<path d="M71.3764 77.5229L74.9999 64L76.8864 64.5055L81.4987 76.4804L80.4663 76.4178L83.2046 66.1984L85.6251 66.847L82.0016 80.3699L80.0972 79.8597L75.6112 67.8407L76.5546 67.8795L73.7969 78.1715L71.3764 77.5229Z" fill="white"/>
<path d="M87.9615 81.4835L91.0013 70.1388L87.4162 69.1782L87.9999 67L97.6591 69.5882L97.0755 71.7664L93.5461 70.8207L90.5063 82.1654L87.9615 81.4835Z" fill="white"/>
<path d="M95.3765 83.5229L99 70L107.693 72.3293L107.11 74.5075L100.805 72.8182L99.8759 76.2851L105.829 77.8804L105.246 80.0586L99.2922 78.4633L98.3486 81.9847L104.654 83.6741L104.07 85.8523L95.3765 83.5229Z" fill="white"/>
<path d="M105.377 86.5229L109 73L117.693 75.3293L117.11 77.5075L110.805 75.8182L109.876 79.2851L115.829 80.8804L115.246 83.0586L109.292 81.4633L108.349 84.9847L114.654 86.6741L114.07 88.8523L105.377 86.5229Z" fill="white"/>
<path fill-rule="evenodd" clip-rule="evenodd" d="M120 76L116.376 89.5229L120.833 90.7171C122.276 91.1037 123.609 91.1529 124.833 90.8648C126.057 90.5767 127.099 89.9999 127.96 89.1347C128.821 88.2694 129.428 87.1772 129.782 85.8582C130.138 84.5271 130.159 83.2777 129.842 82.11C129.526 80.9423 128.91 79.9277 127.995 79.0662C127.079 78.2048 125.899 77.5807 124.457 77.1941L120 76ZM121.742 88.2484L119.671 87.6933L122 79L124.072 79.5551C125.026 79.8108 125.804 80.2099 126.405 80.7524C127.007 81.2949 127.416 81.9396 127.633 82.6866C127.85 83.4335 127.839 84.2546 127.599 85.1498C127.362 86.0334 126.962 86.7473 126.399 87.2915C125.836 87.8356 125.158 88.195 124.364 88.3698C123.571 88.5446 122.697 88.5041 121.742 88.2484Z" fill="white"/>
<path fill-rule="evenodd" clip-rule="evenodd" d="M61.8885 95.539L58.6498 96.2708L60.039 93.255L58.3422 90.401L61.6396 90.7902L63.8296 88.2946L64.4784 91.5509L67.5287 92.8625L64.6322 94.4858L64.3274 97.7921L61.8885 95.539Z" fill="black"/>
<path fill-rule="evenodd" clip-rule="evenodd" d="M49.0219 87.9774L46.7549 88.4897L47.7273 86.3787L46.5395 84.3808L48.8477 84.6533L50.3807 82.9063L50.8349 85.1858L52.9701 86.1039L50.9425 87.2402L50.7292 89.5546L49.0219 87.9774Z" fill="black"/>
<path fill-rule="evenodd" clip-rule="evenodd" d="M76.0218 94.9769L73.7547 95.4892L74.7271 93.3782L73.5394 91.3803L75.8476 91.6528L77.3806 89.9058L77.8348 92.1853L79.97 93.1034L77.9424 94.2397L77.729 96.5541L76.0218 94.9769Z" fill="black"/>
<path fill-rule="evenodd" clip-rule="evenodd" d="M74.8884 46.5385L71.6497 47.2703L73.0388 44.2545L71.3421 41.4005L74.6395 41.7897L76.8295 39.2941L77.4783 42.5504L80.5286 43.862L77.6321 45.4853L77.3273 48.7916L74.8884 46.5385Z" fill="black"/>
<path fill-rule="evenodd" clip-rule="evenodd" d="M61.0218 45.9769L58.7547 46.4892L59.7271 44.3782L58.5394 42.3803L60.8476 42.6528L62.3806 40.9058L62.8348 43.1853L64.97 44.1034L62.9424 45.2397L62.729 47.5541L61.0218 45.9769Z" fill="black"/>
<path fill-rule="evenodd" clip-rule="evenodd" d="M88.0218 52.9769L85.7547 53.4892L86.7271 51.3782L85.5394 49.3803L87.8476 49.6528L89.3806 47.9058L89.8348 50.1853L91.97 51.1034L89.9424 52.2397L89.729 54.5541L88.0218 52.9769Z" fill="black"/>
</g>
</svg>
